# xmcd
# 
# Track frame offsets:
#     150
#     7910
#     27792
#     49125
#     73460
#     98712
#     118457
#     147372
#     163847
#     189422
#     212775
#     240785
#     257925
# 
# Disc length: 3684
# 
# Revision: 12
# Processed by: cddbd v1.5.2PL0 Copyright (c) Steve Scherf et al.
# Submitted via: BonkEnc v1.0.5
# 
DISCID=ba0e620d
DTITLE=globe - Love again
DYEAR=1998
DGENRE=JPop
TTITLE0=before dark
TTITLE1=UNDER Your Sky
TTITLE2=Love again
TTITLE3=You are the one
TTITLE4=Nothing ever makes me happy
TTITLE5=two keys
TTITLE6=I'm bad
TTITLE7=Watching everything
TTITLE8=I'm still along
TTITLE9=Open Wide
TTITLE10=Wanderin' Destiny
TTITLE11=creatures
TTITLE12=end of 3rd element
EXTD=Globe's third album. YEAR: 1998
EXTT0=
EXTT1=
EXTT2=
EXTT3=
EXTT4=
EXTT5=
EXTT6=
EXTT7=
EXTT8=
EXTT9=
EXTT10=
EXTT11=
EXTT12=
PLAYORDER=
